<mxfile host="app.diagrams.net" agent="Mozilla/5.0 (Macintosh; Intel Mac OS X 10_15_7) AppleWebKit/537.36 (KHTML, like Gecko) Chrome/134.0.0.0 Safari/537.36" version="26.2.4">
  <diagram name="第 1 页" id="B5bT3QiYvplj1bwWyGiD">
    <mxGraphModel dx="894" dy="490" grid="0" gridSize="10" guides="1" tooltips="1" connect="1" arrows="1" fold="1" page="1" pageScale="1" pageWidth="2336" pageHeight="1654" math="0" shadow="0">
      <root>
        <mxCell id="0" />
        <mxCell id="1" parent="0" />
        <mxCell id="wwvi0OaRRLeq5XIewz1G-50" style="edgeStyle=orthogonalEdgeStyle;rounded=0;orthogonalLoop=1;jettySize=auto;html=1;exitX=0;exitY=0.5;exitDx=0;exitDy=0;entryX=0.5;entryY=1;entryDx=0;entryDy=0;" parent="1" source="wwvi0OaRRLeq5XIewz1G-46" target="wwvi0OaRRLeq5XIewz1G-4" edge="1">
          <mxGeometry relative="1" as="geometry" />
        </mxCell>
        <mxCell id="wwvi0OaRRLeq5XIewz1G-46" value="" style="rounded=1;whiteSpace=wrap;html=1;fillColor=#b1ddf0;dashed=1;strokeColor=#10739e;" parent="1" vertex="1">
          <mxGeometry x="260" y="380" width="410" height="180" as="geometry" />
        </mxCell>
        <mxCell id="wwvi0OaRRLeq5XIewz1G-22" style="rounded=0;orthogonalLoop=1;jettySize=auto;html=1;exitX=0.5;exitY=0;exitDx=0;exitDy=0;entryX=0.5;entryY=0;entryDx=0;entryDy=0;" parent="1" source="wwvi0OaRRLeq5XIewz1G-15" target="wwvi0OaRRLeq5XIewz1G-10" edge="1">
          <mxGeometry relative="1" as="geometry" />
        </mxCell>
        <mxCell id="wwvi0OaRRLeq5XIewz1G-27" style="edgeStyle=orthogonalEdgeStyle;rounded=0;orthogonalLoop=1;jettySize=auto;html=1;exitX=1;exitY=0.5;exitDx=0;exitDy=0;entryX=0;entryY=0.5;entryDx=0;entryDy=0;" parent="1" source="wwvi0OaRRLeq5XIewz1G-15" target="wwvi0OaRRLeq5XIewz1G-29" edge="1">
          <mxGeometry relative="1" as="geometry">
            <mxPoint x="640" y="235" as="targetPoint" />
          </mxGeometry>
        </mxCell>
        <mxCell id="wwvi0OaRRLeq5XIewz1G-15" value="" style="rounded=1;whiteSpace=wrap;html=1;fillColor=#60a917;dashed=1;strokeColor=#2D7600;fontColor=#ffffff;" parent="1" vertex="1">
          <mxGeometry x="320" y="125" width="290" height="220" as="geometry" />
        </mxCell>
        <mxCell id="wwvi0OaRRLeq5XIewz1G-23" style="edgeStyle=orthogonalEdgeStyle;rounded=0;orthogonalLoop=1;jettySize=auto;html=1;exitX=1;exitY=0.5;exitDx=0;exitDy=0;entryX=0;entryY=0.5;entryDx=0;entryDy=0;" parent="1" source="wwvi0OaRRLeq5XIewz1G-4" target="wwvi0OaRRLeq5XIewz1G-15" edge="1">
          <mxGeometry relative="1" as="geometry" />
        </mxCell>
        <mxCell id="wwvi0OaRRLeq5XIewz1G-4" value="" style="rounded=1;whiteSpace=wrap;html=1;fillColor=#ffe6cc;dashed=1;strokeColor=#d79b00;" parent="1" vertex="1">
          <mxGeometry x="80" y="110" width="200" height="250" as="geometry" />
        </mxCell>
        <mxCell id="wwvi0OaRRLeq5XIewz1G-6" style="edgeStyle=orthogonalEdgeStyle;rounded=0;orthogonalLoop=1;jettySize=auto;html=1;exitX=0.5;exitY=1;exitDx=0;exitDy=0;entryX=0.5;entryY=0;entryDx=0;entryDy=0;" parent="1" source="wwvi0OaRRLeq5XIewz1G-1" target="wwvi0OaRRLeq5XIewz1G-2" edge="1">
          <mxGeometry relative="1" as="geometry" />
        </mxCell>
        <mxCell id="wwvi0OaRRLeq5XIewz1G-1" value="41 维流量序列输入" style="rounded=0;whiteSpace=wrap;html=1;fillColor=#d5e8d4;strokeColor=#82b366;" parent="1" vertex="1">
          <mxGeometry x="95" y="140" width="170" height="40" as="geometry" />
        </mxCell>
        <mxCell id="wwvi0OaRRLeq5XIewz1G-9" style="edgeStyle=orthogonalEdgeStyle;rounded=0;orthogonalLoop=1;jettySize=auto;html=1;exitX=0.5;exitY=1;exitDx=0;exitDy=0;entryX=0.5;entryY=0;entryDx=0;entryDy=0;" parent="1" source="wwvi0OaRRLeq5XIewz1G-2" target="wwvi0OaRRLeq5XIewz1G-3" edge="1">
          <mxGeometry relative="1" as="geometry" />
        </mxCell>
        <mxCell id="wwvi0OaRRLeq5XIewz1G-2" value="双向 LSTM 层 1&lt;div&gt;输出维度：20&lt;/div&gt;" style="rounded=0;whiteSpace=wrap;html=1;fillColor=#d5e8d4;strokeColor=#82b366;" parent="1" vertex="1">
          <mxGeometry x="95" y="220" width="170" height="40" as="geometry" />
        </mxCell>
        <mxCell id="wwvi0OaRRLeq5XIewz1G-3" value="双向 LSTM 层 2&lt;div&gt;输出维度：10&lt;/div&gt;" style="rounded=0;whiteSpace=wrap;html=1;fillColor=#d5e8d4;strokeColor=#82b366;" parent="1" vertex="1">
          <mxGeometry x="95" y="300" width="170" height="40" as="geometry" />
        </mxCell>
        <mxCell id="wwvi0OaRRLeq5XIewz1G-5" value="分层时序编码器" style="text;html=1;align=center;verticalAlign=middle;whiteSpace=wrap;rounded=0;" parent="1" vertex="1">
          <mxGeometry x="135" y="110" width="90" height="30" as="geometry" />
        </mxCell>
        <mxCell id="wwvi0OaRRLeq5XIewz1G-24" style="edgeStyle=orthogonalEdgeStyle;rounded=0;orthogonalLoop=1;jettySize=auto;html=1;exitX=0.5;exitY=1;exitDx=0;exitDy=0;entryX=0.5;entryY=0;entryDx=0;entryDy=0;" parent="1" source="wwvi0OaRRLeq5XIewz1G-10" target="wwvi0OaRRLeq5XIewz1G-14" edge="1">
          <mxGeometry relative="1" as="geometry" />
        </mxCell>
        <mxCell id="wwvi0OaRRLeq5XIewz1G-10" value="全连接层&lt;div&gt;（计算均值&lt;span style=&quot;color: rgba(0, 0, 0, 0.85); font-family: KaTeX_Math; font-style: italic; text-align: left; text-wrap-mode: nowrap;&quot;&gt;&lt;font&gt;μ&lt;/font&gt;&lt;/span&gt;&lt;span style=&quot;background-color: transparent; color: light-dark(rgb(0, 0, 0), rgb(255, 255, 255));&quot;&gt;）&lt;/span&gt;&lt;/div&gt;" style="rounded=0;whiteSpace=wrap;html=1;fillColor=#fff2cc;strokeColor=#d6b656;" parent="1" vertex="1">
          <mxGeometry x="330" y="170" width="110" height="40" as="geometry" />
        </mxCell>
        <mxCell id="wwvi0OaRRLeq5XIewz1G-25" style="edgeStyle=orthogonalEdgeStyle;rounded=0;orthogonalLoop=1;jettySize=auto;html=1;exitX=0.5;exitY=1;exitDx=0;exitDy=0;entryX=0.5;entryY=0;entryDx=0;entryDy=0;" parent="1" source="wwvi0OaRRLeq5XIewz1G-13" target="wwvi0OaRRLeq5XIewz1G-14" edge="1">
          <mxGeometry relative="1" as="geometry" />
        </mxCell>
        <mxCell id="wwvi0OaRRLeq5XIewz1G-13" value="全连接层&lt;div&gt;（计算对数方差 &lt;font face=&quot;KaTeX_Math&quot;&gt;logσ²&lt;/font&gt;&lt;span style=&quot;background-color: transparent; color: light-dark(rgb(0, 0, 0), rgb(255, 255, 255));&quot;&gt;）&lt;/span&gt;&lt;/div&gt;" style="rounded=0;whiteSpace=wrap;html=1;fillColor=#fff2cc;strokeColor=#d6b656;" parent="1" vertex="1">
          <mxGeometry x="460" y="170" width="140" height="40" as="geometry" />
        </mxCell>
        <mxCell id="wwvi0OaRRLeq5XIewz1G-14" value="重参数化采样&lt;div&gt;&lt;span&gt;&lt;font&gt;&lt;span style=&quot;-webkit-font-smoothing: antialiased; box-sizing: border-box; -webkit-tap-highlight-color: rgba(0, 0, 0, 0); border-color: currentcolor; position: relative; text-wrap-mode: nowrap; width: min-content; display: inline-block; overflow-anchor: auto; color: rgba(0, 0, 0, 0.85); font-family: KaTeX_Main, &amp;quot;Times New Roman&amp;quot;, serif; text-align: left;&quot; class=&quot;base&quot;&gt;&lt;span style=&quot;-webkit-font-smoothing: antialiased; box-sizing: border-box; -webkit-tap-highlight-color: rgba(0, 0, 0, 0); border-color: currentcolor; font-family: KaTeX_Math; font-style: italic; overflow-anchor: auto; margin-right: 0.04398em;&quot; class=&quot;mord mathnormal&quot;&gt;z&lt;/span&gt;&lt;span style=&quot;-webkit-font-smoothing: antialiased; box-sizing: border-box; -webkit-tap-highlight-color: rgba(0, 0, 0, 0); border-color: currentcolor; display: inline-block; overflow-anchor: auto; margin-right: 0.2778em;&quot; class=&quot;mspace&quot;&gt;&lt;/span&gt;&lt;span style=&quot;-webkit-font-smoothing: antialiased; box-sizing: border-box; -webkit-tap-highlight-color: rgba(0, 0, 0, 0); border-color: currentcolor; overflow-anchor: auto;&quot; class=&quot;mrel&quot;&gt;=&lt;/span&gt;&lt;span style=&quot;-webkit-font-smoothing: antialiased; box-sizing: border-box; -webkit-tap-highlight-color: rgba(0, 0, 0, 0); border-color: currentcolor; display: inline-block; overflow-anchor: auto; margin-right: 0.2778em;&quot; class=&quot;mspace&quot;&gt;&lt;/span&gt;&lt;/span&gt;&lt;span style=&quot;-webkit-font-smoothing: antialiased; box-sizing: border-box; -webkit-tap-highlight-color: rgba(0, 0, 0, 0); border-color: currentcolor; position: relative; text-wrap-mode: nowrap; width: min-content; display: inline-block; overflow-anchor: auto; color: rgba(0, 0, 0, 0.85); font-family: KaTeX_Main, &amp;quot;Times New Roman&amp;quot;, serif; text-align: left;&quot; class=&quot;base&quot;&gt;&lt;span style=&quot;-webkit-font-smoothing: antialiased; box-sizing: border-box; -webkit-tap-highlight-color: rgba(0, 0, 0, 0); border-color: currentcolor; display: inline-block; overflow-anchor: auto; height: 0.7778em; vertical-align: -0.1944em;&quot; class=&quot;strut&quot;&gt;&lt;/span&gt;&lt;span style=&quot;-webkit-font-smoothing: antialiased; box-sizing: border-box; -webkit-tap-highlight-color: rgba(0, 0, 0, 0); border-color: currentcolor; font-family: KaTeX_Math; font-style: italic; overflow-anchor: auto;&quot; class=&quot;mord mathnormal&quot;&gt;μ&lt;/span&gt;&lt;span style=&quot;-webkit-font-smoothing: antialiased; box-sizing: border-box; -webkit-tap-highlight-color: rgba(0, 0, 0, 0); border-color: currentcolor; display: inline-block; overflow-anchor: auto; margin-right: 0.2222em;&quot; class=&quot;mspace&quot;&gt;&lt;/span&gt;&lt;span style=&quot;-webkit-font-smoothing: antialiased; box-sizing: border-box; -webkit-tap-highlight-color: rgba(0, 0, 0, 0); border-color: currentcolor; overflow-anchor: auto;&quot; class=&quot;mbin&quot;&gt;+&lt;/span&gt;&lt;span style=&quot;-webkit-font-smoothing: antialiased; box-sizing: border-box; -webkit-tap-highlight-color: rgba(0, 0, 0, 0); border-color: currentcolor; display: inline-block; overflow-anchor: auto; margin-right: 0.2222em;&quot; class=&quot;mspace&quot;&gt;&lt;/span&gt;&lt;/span&gt;&lt;span style=&quot;-webkit-font-smoothing: antialiased; box-sizing: border-box; -webkit-tap-highlight-color: rgba(0, 0, 0, 0); border-color: currentcolor; position: relative; text-wrap-mode: nowrap; width: min-content; display: inline-block; overflow-anchor: auto; color: rgba(0, 0, 0, 0.85); font-family: KaTeX_Main, &amp;quot;Times New Roman&amp;quot;, serif; text-align: left;&quot; class=&quot;base&quot;&gt;&lt;span style=&quot;-webkit-font-smoothing: antialiased; box-sizing: border-box; -webkit-tap-highlight-color: rgba(0, 0, 0, 0); border-color: currentcolor; display: inline-block; overflow-anchor: auto; height: 0.6667em; vertical-align: -0.0833em;&quot; class=&quot;strut&quot;&gt;&lt;/span&gt;&lt;span style=&quot;-webkit-font-smoothing: antialiased; box-sizing: border-box; -webkit-tap-highlight-color: rgba(0, 0, 0, 0); border-color: currentcolor; font-family: KaTeX_Math; font-style: italic; overflow-anchor: auto;&quot; class=&quot;mord mathnormal&quot;&gt;ε&lt;/span&gt;&lt;span style=&quot;-webkit-font-smoothing: antialiased; box-sizing: border-box; -webkit-tap-highlight-color: rgba(0, 0, 0, 0); border-color: currentcolor; display: inline-block; overflow-anchor: auto; margin-right: 0.2222em;&quot; class=&quot;mspace&quot;&gt;&lt;/span&gt;&lt;span style=&quot;-webkit-font-smoothing: antialiased; box-sizing: border-box; -webkit-tap-highlight-color: rgba(0, 0, 0, 0); border-color: currentcolor; overflow-anchor: auto;&quot; class=&quot;mbin&quot;&gt;⊙&lt;/span&gt;&lt;span style=&quot;-webkit-font-smoothing: antialiased; box-sizing: border-box; -webkit-tap-highlight-color: rgba(0, 0, 0, 0); border-color: currentcolor; display: inline-block; overflow-anchor: auto; margin-right: 0.2222em;&quot; class=&quot;mspace&quot;&gt;&lt;/span&gt;&lt;/span&gt;&lt;span style=&quot;-webkit-font-smoothing: antialiased; box-sizing: border-box; -webkit-tap-highlight-color: rgba(0, 0, 0, 0); border-color: currentcolor; position: relative; text-wrap-mode: nowrap; width: min-content; display: inline-block; overflow-anchor: auto; color: rgba(0, 0, 0, 0.85); font-family: KaTeX_Main, &amp;quot;Times New Roman&amp;quot;, serif; text-align: left;&quot; class=&quot;base&quot;&gt;&lt;span style=&quot;-webkit-font-smoothing: antialiased; box-sizing: border-box; -webkit-tap-highlight-color: rgba(0, 0, 0, 0); border-color: currentcolor; display: inline-block; overflow-anchor: auto; height: 1.0641em; vertical-align: -0.25em;&quot; class=&quot;strut&quot;&gt;&lt;/span&gt;&lt;span style=&quot;-webkit-font-smoothing: antialiased; box-sizing: border-box; -webkit-tap-highlight-color: rgba(0, 0, 0, 0); border-color: currentcolor; overflow-anchor: auto;&quot; class=&quot;mop&quot;&gt;exp&lt;/span&gt;&lt;span style=&quot;-webkit-font-smoothing: antialiased; box-sizing: border-box; -webkit-tap-highlight-color: rgba(0, 0, 0, 0); border-color: currentcolor; overflow-anchor: auto;&quot; class=&quot;mopen&quot;&gt;(&lt;/span&gt;&lt;span style=&quot;-webkit-font-smoothing: antialiased; box-sizing: border-box; -webkit-tap-highlight-color: rgba(0, 0, 0, 0); border-color: currentcolor; overflow-anchor: auto;&quot; class=&quot;mord&quot;&gt;0.5&lt;/span&gt;&lt;span style=&quot;-webkit-font-smoothing: antialiased; box-sizing: border-box; -webkit-tap-highlight-color: rgba(0, 0, 0, 0); border-color: currentcolor; display: inline-block; overflow-anchor: auto; margin-right: 0.1667em;&quot; class=&quot;mspace&quot;&gt;&lt;/span&gt;&lt;span style=&quot;-webkit-font-smoothing: antialiased; box-sizing: border-box; -webkit-tap-highlight-color: rgba(0, 0, 0, 0); border-color: currentcolor; overflow-anchor: auto;&quot; class=&quot;mop&quot;&gt;lo&lt;span style=&quot;-webkit-font-smoothing: antialiased; box-sizing: border-box; -webkit-tap-highlight-color: rgba(0, 0, 0, 0); border-color: currentcolor; overflow-anchor: auto; margin-right: 0.01389em;&quot;&gt;g&lt;/span&gt;&lt;/span&gt;&lt;span style=&quot;-webkit-font-smoothing: antialiased; box-sizing: border-box; -webkit-tap-highlight-color: rgba(0, 0, 0, 0); border-color: currentcolor; display: inline-block; overflow-anchor: auto; margin-right: 0.1667em;&quot; class=&quot;mspace&quot;&gt;&lt;/span&gt;&lt;span style=&quot;-webkit-font-smoothing: antialiased; box-sizing: border-box; -webkit-tap-highlight-color: rgba(0, 0, 0, 0); border-color: currentcolor; overflow-anchor: auto;&quot; class=&quot;mord&quot;&gt;&lt;span style=&quot;-webkit-font-smoothing: antialiased; box-sizing: border-box; -webkit-tap-highlight-color: rgba(0, 0, 0, 0); border-color: currentcolor; font-family: KaTeX_Math; font-style: italic; overflow-anchor: auto; margin-right: 0.03588em;&quot; class=&quot;mord mathnormal&quot;&gt;σ&lt;/span&gt;&lt;span style=&quot;-webkit-font-smoothing: antialiased; box-sizing: border-box; -webkit-tap-highlight-color: rgba(0, 0, 0, 0); border-color: currentcolor; overflow-anchor: auto;&quot; class=&quot;msupsub&quot;&gt;&lt;span style=&quot;-webkit-font-smoothing: antialiased; box-sizing: border-box; -webkit-tap-highlight-color: rgba(0, 0, 0, 0); border-color: currentcolor; border-collapse: collapse; display: inline-table; table-layout: fixed; overflow-anchor: auto;&quot; class=&quot;vlist-t&quot;&gt;&lt;span style=&quot;-webkit-font-smoothing: antialiased; box-sizing: border-box; -webkit-tap-highlight-color: rgba(0, 0, 0, 0); border-color: currentcolor; display: table-row; overflow-anchor: auto;&quot; class=&quot;vlist-r&quot;&gt;&lt;span style=&quot;-webkit-font-smoothing: antialiased; box-sizing: border-box; -webkit-tap-highlight-color: rgba(0, 0, 0, 0); border-color: currentcolor; display: table-cell; position: relative; vertical-align: bottom; overflow-anchor: auto; height: 0.8141em;&quot; class=&quot;vlist&quot;&gt;&lt;span style=&quot;-webkit-font-smoothing: antialiased; box-sizing: border-box; -webkit-tap-highlight-color: rgba(0, 0, 0, 0); border-color: currentcolor; display: block; height: 0px; position: relative; overflow-anchor: auto; top: -3.063em; margin-right: 0.05em;&quot;&gt;&lt;span style=&quot;-webkit-font-smoothing: antialiased; box-sizing: border-box; -webkit-tap-highlight-color: rgba(0, 0, 0, 0); border-color: currentcolor; display: inline-block; overflow-anchor: auto; overflow: hidden; width: 0px; height: 2.7em;&quot; class=&quot;pstrut&quot;&gt;&lt;/span&gt;&lt;span style=&quot;-webkit-font-smoothing: antialiased; box-sizing: border-box; -webkit-tap-highlight-color: rgba(0, 0, 0, 0); border-color: currentcolor; display: inline-block; overflow-anchor: auto;&quot; class=&quot;sizing reset-size6 size3 mtight&quot;&gt;&lt;span style=&quot;-webkit-font-smoothing: antialiased; box-sizing: border-box; -webkit-tap-highlight-color: rgba(0, 0, 0, 0); border-color: currentcolor; overflow-anchor: auto;&quot; class=&quot;mord mtight&quot;&gt;&lt;span style=&quot;-webkit-font-smoothing: antialiased; box-sizing: border-box; -webkit-tap-highlight-color: rgba(0, 0, 0, 0); border-color: currentcolor; overflow-anchor: auto;&quot; class=&quot;mord mtight&quot;&gt;2&lt;/span&gt;&lt;/span&gt;&lt;/span&gt;&lt;/span&gt;&lt;/span&gt;&lt;/span&gt;&lt;/span&gt;&lt;/span&gt;&lt;/span&gt;&lt;span style=&quot;-webkit-font-smoothing: antialiased; box-sizing: border-box; -webkit-tap-highlight-color: rgba(0, 0, 0, 0); border-color: currentcolor; overflow-anchor: auto;&quot; class=&quot;mclose&quot;&gt;)&lt;/span&gt;&lt;/span&gt;&lt;/font&gt;&lt;/span&gt;&lt;/div&gt;&lt;div&gt;&lt;span&gt;&lt;font&gt;&lt;span style=&quot;-webkit-font-smoothing: antialiased; box-sizing: border-box; -webkit-tap-highlight-color: rgba(0, 0, 0, 0); border-color: currentcolor; position: relative; text-wrap-mode: nowrap; width: min-content; display: inline-block; overflow-anchor: auto; color: rgba(0, 0, 0, 0.85); font-family: KaTeX_Main, &amp;quot;Times New Roman&amp;quot;, serif; text-align: start;&quot; class=&quot;base&quot;&gt;&lt;span style=&quot;-webkit-font-smoothing: antialiased; box-sizing: border-box; -webkit-tap-highlight-color: rgba(0, 0, 0, 0); border-color: currentcolor; font-family: KaTeX_Math; font-style: italic; overflow-anchor: auto;&quot; class=&quot;mord mathnormal&quot;&gt;ε&lt;/span&gt;&lt;span style=&quot;-webkit-font-smoothing: antialiased; box-sizing: border-box; -webkit-tap-highlight-color: rgba(0, 0, 0, 0); border-color: currentcolor; display: inline-block; overflow-anchor: auto; margin-right: 0.2778em;&quot; class=&quot;mspace&quot;&gt;&lt;/span&gt;&lt;span style=&quot;-webkit-font-smoothing: antialiased; box-sizing: border-box; -webkit-tap-highlight-color: rgba(0, 0, 0, 0); border-color: currentcolor; overflow-anchor: auto;&quot; class=&quot;mrel&quot;&gt;∼&lt;/span&gt;&lt;span style=&quot;-webkit-font-smoothing: antialiased; box-sizing: border-box; -webkit-tap-highlight-color: rgba(0, 0, 0, 0); border-color: currentcolor; display: inline-block; overflow-anchor: auto; margin-right: 0.2778em;&quot; class=&quot;mspace&quot;&gt;&lt;/span&gt;&lt;/span&gt;&lt;span style=&quot;-webkit-font-smoothing: antialiased; box-sizing: border-box; -webkit-tap-highlight-color: rgba(0, 0, 0, 0); border-color: currentcolor; position: relative; text-wrap-mode: nowrap; width: min-content; display: inline-block; overflow-anchor: auto; color: rgba(0, 0, 0, 0.85); font-family: KaTeX_Main, &amp;quot;Times New Roman&amp;quot;, serif; text-align: start;&quot; class=&quot;base&quot;&gt;&lt;span style=&quot;-webkit-font-smoothing: antialiased; box-sizing: border-box; -webkit-tap-highlight-color: rgba(0, 0, 0, 0); border-color: currentcolor; display: inline-block; overflow-anchor: auto; height: 1em; vertical-align: -0.25em;&quot; class=&quot;strut&quot;&gt;&lt;/span&gt;&lt;span style=&quot;-webkit-font-smoothing: antialiased; box-sizing: border-box; -webkit-tap-highlight-color: rgba(0, 0, 0, 0); border-color: currentcolor; font-family: KaTeX_Math; font-style: italic; overflow-anchor: auto; margin-right: 0.10903em;&quot; class=&quot;mord mathnormal&quot;&gt;N&lt;/span&gt;&lt;span style=&quot;-webkit-font-smoothing: antialiased; box-sizing: border-box; -webkit-tap-highlight-color: rgba(0, 0, 0, 0); border-color: currentcolor; overflow-anchor: auto;&quot; class=&quot;mopen&quot;&gt;(&lt;/span&gt;&lt;span style=&quot;-webkit-font-smoothing: antialiased; box-sizing: border-box; -webkit-tap-highlight-color: rgba(0, 0, 0, 0); border-color: currentcolor; overflow-anchor: auto;&quot; class=&quot;mord&quot;&gt;0&lt;/span&gt;&lt;span style=&quot;-webkit-font-smoothing: antialiased; box-sizing: border-box; -webkit-tap-highlight-color: rgba(0, 0, 0, 0); border-color: currentcolor; overflow-anchor: auto;&quot; class=&quot;mpunct&quot;&gt;,&lt;/span&gt;&lt;span style=&quot;-webkit-font-smoothing: antialiased; box-sizing: border-box; -webkit-tap-highlight-color: rgba(0, 0, 0, 0); border-color: currentcolor; display: inline-block; overflow-anchor: auto; margin-right: 0.1667em;&quot; class=&quot;mspace&quot;&gt;&lt;/span&gt;&lt;span style=&quot;-webkit-font-smoothing: antialiased; box-sizing: border-box; -webkit-tap-highlight-color: rgba(0, 0, 0, 0); border-color: currentcolor; font-family: KaTeX_Math; font-style: italic; overflow-anchor: auto; margin-right: 0.07847em;&quot; class=&quot;mord mathnormal&quot;&gt;1&lt;/span&gt;&lt;span style=&quot;-webkit-font-smoothing: antialiased; box-sizing: border-box; -webkit-tap-highlight-color: rgba(0, 0, 0, 0); border-color: currentcolor; overflow-anchor: auto;&quot; class=&quot;mclose&quot;&gt;)&lt;/span&gt;&lt;/span&gt;&lt;/font&gt;&lt;/span&gt;&lt;span&gt;&lt;font&gt;&lt;span style=&quot;-webkit-font-smoothing: antialiased; box-sizing: border-box; -webkit-tap-highlight-color: rgba(0, 0, 0, 0); border-color: currentcolor; position: relative; text-wrap-mode: nowrap; width: min-content; display: inline-block; overflow-anchor: auto; color: rgba(0, 0, 0, 0.85); font-family: KaTeX_Main, &amp;quot;Times New Roman&amp;quot;, serif; text-align: left;&quot; class=&quot;base&quot;&gt;&lt;span style=&quot;-webkit-font-smoothing: antialiased; box-sizing: border-box; -webkit-tap-highlight-color: rgba(0, 0, 0, 0); border-color: currentcolor; overflow-anchor: auto;&quot; class=&quot;mclose&quot;&gt;&lt;/span&gt;&lt;/span&gt;&lt;/font&gt;&lt;/span&gt;&lt;/div&gt;" style="rounded=0;whiteSpace=wrap;html=1;fillColor=#fff2cc;strokeColor=#d6b656;" parent="1" vertex="1">
          <mxGeometry x="390" y="279" width="150" height="50" as="geometry" />
        </mxCell>
        <mxCell id="wwvi0OaRRLeq5XIewz1G-28" value="潜在空间生成" style="text;html=1;align=center;verticalAlign=middle;whiteSpace=wrap;rounded=0;" parent="1" vertex="1">
          <mxGeometry x="420" y="130" width="90" height="30" as="geometry" />
        </mxCell>
        <mxCell id="wwvi0OaRRLeq5XIewz1G-49" style="edgeStyle=orthogonalEdgeStyle;rounded=0;orthogonalLoop=1;jettySize=auto;html=1;exitX=0.5;exitY=1;exitDx=0;exitDy=0;entryX=1;entryY=0.5;entryDx=0;entryDy=0;" parent="1" source="wwvi0OaRRLeq5XIewz1G-29" target="wwvi0OaRRLeq5XIewz1G-46" edge="1">
          <mxGeometry relative="1" as="geometry" />
        </mxCell>
        <mxCell id="wwvi0OaRRLeq5XIewz1G-29" value="" style="rounded=1;whiteSpace=wrap;html=1;fillColor=#ffe6cc;dashed=1;strokeColor=#d79b00;" parent="1" vertex="1">
          <mxGeometry x="650" y="110" width="200" height="250" as="geometry" />
        </mxCell>
        <mxCell id="wwvi0OaRRLeq5XIewz1G-30" style="edgeStyle=orthogonalEdgeStyle;rounded=0;orthogonalLoop=1;jettySize=auto;html=1;exitX=0.5;exitY=1;exitDx=0;exitDy=0;entryX=0.5;entryY=0;entryDx=0;entryDy=0;" parent="1" target="wwvi0OaRRLeq5XIewz1G-37" edge="1">
          <mxGeometry relative="1" as="geometry">
            <mxPoint x="750" y="185" as="sourcePoint" />
            <mxPoint x="750" y="225" as="targetPoint" />
          </mxGeometry>
        </mxCell>
        <mxCell id="wwvi0OaRRLeq5XIewz1G-32" style="edgeStyle=orthogonalEdgeStyle;rounded=0;orthogonalLoop=1;jettySize=auto;html=1;exitX=0.5;exitY=1;exitDx=0;exitDy=0;entryX=0.5;entryY=0;entryDx=0;entryDy=0;" parent="1" source="wwvi0OaRRLeq5XIewz1G-37" target="wwvi0OaRRLeq5XIewz1G-39" edge="1">
          <mxGeometry relative="1" as="geometry">
            <mxPoint x="750" y="265" as="sourcePoint" />
            <mxPoint x="750" y="305" as="targetPoint" />
          </mxGeometry>
        </mxCell>
        <mxCell id="wwvi0OaRRLeq5XIewz1G-35" value="对称 LSTM 解码器" style="text;html=1;align=center;verticalAlign=middle;whiteSpace=wrap;rounded=0;" parent="1" vertex="1">
          <mxGeometry x="697.5" y="115" width="105" height="30" as="geometry" />
        </mxCell>
        <mxCell id="wwvi0OaRRLeq5XIewz1G-36" value="双向 LSTM 层 1&lt;div&gt;输出维度：10&lt;/div&gt;" style="rounded=0;whiteSpace=wrap;html=1;fillColor=#d5e8d4;strokeColor=#82b366;" parent="1" vertex="1">
          <mxGeometry x="665" y="145" width="170" height="40" as="geometry" />
        </mxCell>
        <mxCell id="wwvi0OaRRLeq5XIewz1G-37" value="双向 LSTM 层 2&lt;div&gt;输出维度：20&lt;/div&gt;" style="rounded=0;whiteSpace=wrap;html=1;fillColor=#d5e8d4;strokeColor=#82b366;" parent="1" vertex="1">
          <mxGeometry x="665" y="220" width="170" height="40" as="geometry" />
        </mxCell>
        <mxCell id="wwvi0OaRRLeq5XIewz1G-38" value="双向 LSTM 层 2&lt;div&gt;输出维度：10&lt;/div&gt;" style="rounded=0;whiteSpace=wrap;html=1;fillColor=#d5e8d4;strokeColor=#82b366;" parent="1" vertex="1">
          <mxGeometry x="1225" y="390" width="170" height="40" as="geometry" />
        </mxCell>
        <mxCell id="wwvi0OaRRLeq5XIewz1G-39" value="41 维重构流量序列输出" style="rounded=0;whiteSpace=wrap;html=1;fillColor=#d5e8d4;strokeColor=#82b366;" parent="1" vertex="1">
          <mxGeometry x="665" y="300" width="170" height="40" as="geometry" />
        </mxCell>
        <mxCell id="wwvi0OaRRLeq5XIewz1G-44" style="edgeStyle=orthogonalEdgeStyle;rounded=0;orthogonalLoop=1;jettySize=auto;html=1;exitX=0.5;exitY=1;exitDx=0;exitDy=0;entryX=0.5;entryY=0;entryDx=0;entryDy=0;" parent="1" source="wwvi0OaRRLeq5XIewz1G-40" target="wwvi0OaRRLeq5XIewz1G-43" edge="1">
          <mxGeometry relative="1" as="geometry" />
        </mxCell>
        <mxCell id="wwvi0OaRRLeq5XIewz1G-40" value="重构损失&lt;div&gt;计算输入与重构输出的均方误差&lt;/div&gt;" style="rounded=0;whiteSpace=wrap;html=1;fillColor=#d0cee2;strokeColor=#56517e;" parent="1" vertex="1">
          <mxGeometry x="270" y="420" width="180" height="40" as="geometry" />
        </mxCell>
        <mxCell id="wwvi0OaRRLeq5XIewz1G-45" style="edgeStyle=orthogonalEdgeStyle;rounded=0;orthogonalLoop=1;jettySize=auto;html=1;exitX=0.5;exitY=1;exitDx=0;exitDy=0;entryX=0.5;entryY=0;entryDx=0;entryDy=0;" parent="1" source="wwvi0OaRRLeq5XIewz1G-42" target="wwvi0OaRRLeq5XIewz1G-43" edge="1">
          <mxGeometry relative="1" as="geometry" />
        </mxCell>
        <mxCell id="wwvi0OaRRLeq5XIewz1G-42" value="β x KL 散度&lt;div&gt;约束潜在分布接近标准正态分布&lt;/div&gt;" style="rounded=0;whiteSpace=wrap;html=1;fillColor=#d0cee2;strokeColor=#56517e;" parent="1" vertex="1">
          <mxGeometry x="480" y="420" width="180" height="40" as="geometry" />
        </mxCell>
        <mxCell id="wwvi0OaRRLeq5XIewz1G-43" value="总损失 =&amp;nbsp;&lt;span style=&quot;background-color: transparent; color: light-dark(rgb(0, 0, 0), rgb(255, 255, 255));&quot;&gt;重构损失 +&amp;nbsp;&lt;/span&gt;β x KL 散度" style="rounded=0;whiteSpace=wrap;html=1;fillColor=#d0cee2;strokeColor=#56517e;" parent="1" vertex="1">
          <mxGeometry x="380" y="510" width="180" height="40" as="geometry" />
        </mxCell>
        <mxCell id="wwvi0OaRRLeq5XIewz1G-48" value="损失函数计算" style="text;html=1;align=center;verticalAlign=middle;whiteSpace=wrap;rounded=0;" parent="1" vertex="1">
          <mxGeometry x="420" y="385" width="90" height="30" as="geometry" />
        </mxCell>
      </root>
    </mxGraphModel>
  </diagram>
</mxfile>
